<svg xmlns="http://www.w3.org/2000/svg" id="Layer_1" data-name="Layer 1" viewBox="0 0 28 28"><title>orange-menu-icon</title><path d="M3,0A3,3,0,1,0,6,3,3,3,0,0,0,3,0ZM14,0a3,3,0,1,0,3,3A3,3,0,0,0,14,0ZM25,6a3,3,0,1,0-3-3A3,3,0,0,0,25,6ZM3,11a3,3,0,1,0,3,3A3,3,0,0,0,3,11Zm11,0a3,3,0,1,0,3,3A3,3,0,0,0,14,11Zm11,0a3,3,0,1,0,3,3A3,3,0,0,0,25,11ZM3,22a3,3,0,1,0,3,3A3,3,0,0,0,3,22Zm11,0a3,3,0,1,0,3,3A3,3,0,0,0,14,22Zm11,0a3,3,0,1,0,3,3A3,3,0,0,0,25,22Z" fill="#ff4800" fill-rule="evenodd"></path></svg>