<svg xmlns="http://www.w3.org/2000/svg" height="60" width="69" viewBox="0 0 68.57 60"><path fill="#CCD5FD" d="M68.57 60H0V8.57h24.83L33.4 0h14.63l8.57 8.57h11.97V60zM4.29 55.71h60V12.86h-9.46l-8.57-8.57H35.17l-8.57 8.57H4.29v42.85z"></path><path fill="#042FF8" d="M40.71 51.43c-9.45 0-17.14-7.69-17.14-17.14s7.69-17.14 17.14-17.14 17.14 7.69 17.14 17.14-7.68 17.14-17.14 17.14zm0-30c-7.09 0-12.86 5.77-12.86 12.86s5.77 12.86 12.86 12.86 12.86-5.77 12.86-12.86-5.77-12.86-12.86-12.86zM4.29 0h15v4.29h-15z"></path><circle fill="#CCD5FD" cx="13.93" cy="22.5" r="3.21"></circle></svg>