<svg xmlns="http://www.w3.org/2000/svg" height="60" width="60" viewBox="0 0 60 60"><path fill="#042FF8" d="M30 39.38c-5.17 0-9.38-4.21-9.38-9.38s4.21-9.38 9.38-9.38 9.38 4.21 9.38 9.38-4.21 9.38-9.38 9.38zm0-15a5.63 5.63 0 100 11.26 5.63 5.63 0 100-11.26z"></path><path fill="#CCD5FD" d="M37.5 60h-15v-8.79c-.76-.27-1.52-.57-2.27-.92l-6.17 6.17L3.54 45.94l6.19-6.19c-.36-.74-.69-1.49-.98-2.25H0v-15h8.79c.27-.76.57-1.52.92-2.27l-6.17-6.17L14.06 3.54l6.19 6.19c.74-.36 1.48-.69 2.25-.98V0h15v8.79c.76.27 1.52.57 2.27.92l6.17-6.17 10.53 10.53-6.19 6.19c.36.74.69 1.48.97 2.25H60v15h-8.79c-.27.76-.57 1.52-.92 2.27l6.17 6.17-10.52 10.51-6.19-6.19c-.74.36-1.49.7-2.25.98V60zm-11.25-3.75h7.5v-7.84l1.42-.36c1.3-.32 2.66-1 4.11-1.73l1.21-.6 5.45 5.44 5.22-5.22-5.5-5.5.71-1.24c.71-1.24 1.25-2.74 1.72-4.16l.43-1.28h7.73v-7.5h-7.84l-.36-1.42c-.32-1.3-1.01-2.67-1.73-4.11l-.6-1.21 5.44-5.44-5.22-5.22-5.5 5.5-1.24-.71c-1.24-.71-2.74-1.25-4.16-1.72l-1.28-.43V3.75h-7.5v7.84l-1.42.36c-1.3.33-2.67 1.01-4.12 1.73l-1.21.6-5.44-5.44-5.22 5.22 5.5 5.5-.71 1.24c-.71 1.24-1.25 2.73-1.72 4.16l-.43 1.28H3.75v7.5h7.84l.36 1.42c.32 1.3 1.01 2.66 1.73 4.11l.6 1.21-5.44 5.45 5.22 5.22 5.5-5.5 1.24.71c1.24.71 2.73 1.25 4.16 1.72l1.28.43v7.74z"></path></svg>