<svg xmlns="http://www.w3.org/2000/svg" height="60" width="60" viewBox="0 0 60.01 60"><path fill="#CCD5FD" d="M36.048 8.493l2.73-2.73 15.4 15.401-2.73 2.73zM12.86 29.25l-9.94-9.94.76-1.29c1-1.69 2.17-3.21 3.48-4.53 6.6-6.6 16.41-8.48 25-4.78l-1.53 3.55c-7.12-3.07-15.26-1.51-20.73 3.97-.75.75-1.45 1.59-2.08 2.51l7.79 7.78-2.75 2.73zM40.69 57.08l-9.97-9.97 2.73-2.73 7.81 7.81c.92-.63 1.75-1.33 2.51-2.08 5.51-5.51 7.05-13.69 3.92-20.82l3.54-1.55c3.77 8.6 1.91 18.46-4.73 25.1a22.418 22.418 0 01-4.53 3.48l-1.28.76z"></path><path fill="#CCD5FD" d="M24.55 51.92L8.09 35.46l.48-1.18C8.69 33.95 21.95 1.99 57.86.11L60.01 0l-.12 2.15C57.86 37.89 26.05 51.3 25.73 51.43l-1.18.49zM12.67 34.58l12.75 12.75c5.36-2.63 27.77-15.24 30.45-43.2-28.15 2.56-40.62 25.08-43.2 30.45z"></path><path fill="#042FF8" d="M7.73 60H0v-7.73c0-4.26 3.47-7.73 7.73-7.73s7.73 3.47 7.73 7.73S11.99 60 7.73 60zm-3.87-3.86h3.86c2.13 0 3.86-1.73 3.86-3.86s-1.73-3.86-3.86-3.86-3.86 1.73-3.86 3.86v3.86zM33.81 32.95c-3.73 0-6.76-3.03-6.76-6.76s3.03-6.76 6.76-6.76 6.76 3.03 6.76 6.76-3.03 6.76-6.76 6.76zm0-9.66c-1.6 0-2.9 1.3-2.9 2.9s1.3 2.9 2.9 2.9c1.6 0 2.9-1.3 2.9-2.9s-1.3-2.9-2.9-2.9z"></path></svg>