<svg xmlns="http://www.w3.org/2000/svg" xmlns:xlink="http://www.w3.org/1999/xlink" preserveAspectRatio="xMidYMid" width="18" height="18" viewBox="0 0 18 18"><defs><style>
      .cls-1 {
        fill: #333;
        fill-rule: evenodd;
      }
    </style></defs><path d="M9.000,4.999 C6.790,4.999 5.000,6.789 5.000,8.999 C5.000,11.209 6.790,12.999 9.000,12.999 C11.210,12.999 13.000,11.209 13.000,8.999 C13.000,6.789 11.210,4.999 9.000,4.999 ZM2.000,11.999 L-0.000,11.999 L-0.000,15.999 C-0.000,17.105 0.895,17.999 2.000,17.999 L6.000,17.999 L6.000,15.999 L2.000,15.999 L2.000,11.999 ZM2.000,1.999 L6.000,1.999 L6.000,-0.001 L2.000,-0.001 C0.895,-0.001 -0.000,0.894 -0.000,1.999 L-0.000,6.000 L2.000,6.000 L2.000,1.999 ZM16.000,-0.001 L12.000,-0.001 L12.000,1.999 L16.000,1.999 L16.000,6.000 L18.000,6.000 L18.000,1.999 C18.000,0.894 17.105,-0.001 16.000,-0.001 ZM16.000,15.999 L12.000,15.999 L12.000,17.999 L16.000,17.999 C17.105,17.999 18.000,17.105 18.000,15.999 L18.000,11.999 L16.000,11.999 L16.000,15.999 Z" class="cls-1"></path></svg>