<svg xmlns="http://www.w3.org/2000/svg" xmlns:xlink="http://www.w3.org/1999/xlink" preserveAspectRatio="xMidYMid" width="20" height="18" viewBox="0 0 20 18"><defs><style>
      .cls-1 {
        fill: #333;
        fill-rule: evenodd;
      }
    </style></defs><path d="M10.000,3.999 L10.000,-0.001 L-0.000,-0.001 L-0.000,17.999 L20.000,17.999 L20.000,3.999 L10.000,3.999 ZM4.000,15.999 L2.000,15.999 L2.000,14.000 L4.000,14.000 L4.000,15.999 ZM4.000,11.999 L2.000,11.999 L2.000,9.999 L4.000,9.999 L4.000,11.999 ZM4.000,7.999 L2.000,7.999 L2.000,5.999 L4.000,5.999 L4.000,7.999 ZM4.000,3.999 L2.000,3.999 L2.000,1.999 L4.000,1.999 L4.000,3.999 ZM8.000,15.999 L6.000,15.999 L6.000,14.000 L8.000,14.000 L8.000,15.999 ZM8.000,11.999 L6.000,11.999 L6.000,9.999 L8.000,9.999 L8.000,11.999 ZM8.000,7.999 L6.000,7.999 L6.000,5.999 L8.000,5.999 L8.000,7.999 ZM8.000,3.999 L6.000,3.999 L6.000,1.999 L8.000,1.999 L8.000,3.999 ZM18.000,15.999 L10.000,15.999 L10.000,14.000 L12.000,14.000 L12.000,11.999 L10.000,11.999 L10.000,9.999 L12.000,9.999 L12.000,7.999 L10.000,7.999 L10.000,5.999 L18.000,5.999 L18.000,15.999 ZM16.000,7.999 L14.000,7.999 L14.000,9.999 L16.000,9.999 L16.000,7.999 ZM16.000,11.999 L14.000,11.999 L14.000,14.000 L16.000,14.000 L16.000,11.999 Z" class="cls-1"></path></svg>