<svg xmlns="http://www.w3.org/2000/svg" xmlns:xlink="http://www.w3.org/1999/xlink" preserveAspectRatio="xMidYMid" width="18" height="18" viewBox="0 0 18 18"><defs><style>
      .cls-1 {
        fill: #333;
        fill-rule: evenodd;
      }
    </style></defs><path d="M17.000,12.499 C15.755,12.499 14.555,12.299 13.430,11.929 C13.085,11.819 12.690,11.899 12.415,12.174 L10.215,14.379 C7.380,12.939 5.070,10.624 3.625,7.794 L5.825,5.589 C6.100,5.314 6.180,4.919 6.070,4.574 C5.700,3.449 5.500,2.244 5.500,0.999 C5.500,0.444 5.055,-0.001 4.500,-0.001 L1.000,-0.001 C0.445,-0.001 -0.000,0.444 -0.000,0.999 C-0.000,10.389 7.610,17.999 17.000,17.999 C17.555,17.999 18.000,17.554 18.000,17.000 L18.000,13.499 C18.000,12.944 17.555,12.499 17.000,12.499 ZM16.000,8.999 L18.000,8.999 C18.000,4.029 13.970,-0.001 9.000,-0.001 L9.000,1.999 C12.865,1.999 16.000,5.134 16.000,8.999 ZM12.000,8.999 L14.000,8.999 C14.000,6.239 11.760,4.000 9.000,4.000 L9.000,6.000 C10.655,6.000 12.000,7.344 12.000,8.999 Z" class="cls-1"></path></svg>