<svg xmlns="http://www.w3.org/2000/svg" width="30" height="30" viewBox="0 0 30 30"><g transform="translate(-424.865 -244.452)"><circle cx="3" cy="3" r="3" transform="translate(436.865 256.452)" fill="#90acfb"></circle><path d="M439.865,244.452a15,15,0,0,0-9,27V267.4a12.394,12.394,0,0,1-3-7.95,12,12,0,0,1,24,0,12.394,12.394,0,0,1-3,7.95v4.05a15,15,0,0,0-9-27Z" fill="#becefd"></path><path d="M439.865,250.452a9.026,9.026,0,0,0-9,9,8.321,8.321,0,0,0,1.05,4.2,6.584,6.584,0,0,1,2.4-2.1,4.791,4.791,0,0,1-.45-2.1,6,6,0,0,1,12,0,4.791,4.791,0,0,1-.45,2.1,6.421,6.421,0,0,1,2.4,2.1,8.32,8.32,0,0,0,1.05-4.2A9.026,9.026,0,0,0,439.865,250.452Z" fill="#265bf3"></path><path d="M442.865,263.952h-6a3.009,3.009,0,0,0-3,3v7.5h12v-7.5A3.009,3.009,0,0,0,442.865,263.952Z" fill="#90acfb"></path></g></svg>