<svg xmlns="http://www.w3.org/2000/svg" width="30" height="29.998" viewBox="0 0 30 29.998"><g transform="translate(-339.417 -244.687)"><path d="M361.231,256.867v3.951H349.442V271.24h11.029l4.971,3.445V271.24h3.975V256.867Zm2.969,10.9h-9.541v-1.758H364.2Zm0-3.516h-9.541v-1.757H364.2Z" fill="#265bf3"></path><path d="M359.473,244.687H339.417V259.06h3.957v3.445l4.971-3.445h11.128Zm-9.158,11.356h-1.758v-1.758h1.758Zm0-3.934v.955h-1.758v-2.542h.879a.595.595,0,1,0-.594-.6h-1.758a2.352,2.352,0,1,1,3.231,2.182Z" fill="#becefd"></path></g></svg>