<?xml version="1.0" encoding="utf-8"?>
<!-- Generator: Adobe Illustrator 23.1.0, SVG Export Plug-In . SVG Version: 6.00 Build 0)  -->
<svg version="1.1" id="Layer_1" xmlns="http://www.w3.org/2000/svg" xmlns:xlink="http://www.w3.org/1999/xlink" x="0px" y="0px"
	 viewBox="0 0 164 182" enable-background="new 0 0 164 182" xml:space="preserve">
<g>
	<path id="Rectangle_588" fill="#FFFFFF" d="M5,0h154c2.8,0,5,2.2,5,5v172c0,2.8-2.2,5-5,5H5c-2.8,0-5-2.2-5-5V5C0,2.2,2.2,0,5,0z"
		/>
	<path id="Rectangle_589" fill="#DDE1E3" d="M17.5,33h55c1.4,0,2.5,1.1,2.5,2.5l0,0c0,1.4-1.1,2.5-2.5,2.5h-55
		c-1.4,0-2.5-1.1-2.5-2.5l0,0C15,34.1,16.1,33,17.5,33z"/>
	<path id="Rectangle_591" fill="#DDE1E3" d="M17.5,69h129c1.4,0,2.5,1.1,2.5,2.5l0,0c0,1.4-1.1,2.5-2.5,2.5h-129
		c-1.4,0-2.5-1.1-2.5-2.5l0,0C15,70.1,16.1,69,17.5,69z"/>
	<path id="Rectangle_592" fill="#DDE1E3" d="M20,105h124c2.8,0,5,2.2,5,5v15c0,2.8-2.2,5-5,5H20c-2.8,0-5-2.2-5-5v-15
		C15,107.2,17.2,105,20,105z"/>
	<path id="Rectangle_590" fill="#DDE1E3" d="M91.5,33h55c1.4,0,2.5,1.1,2.5,2.5l0,0c0,1.4-1.1,2.5-2.5,2.5h-55
		c-1.4,0-2.5-1.1-2.5-2.5l0,0C89,34.1,90.1,33,91.5,33z"/>
	<g enable-background="new    ">
		<path fill="#565656" d="M20.5,19.9v0.8h-3.7v2.3H20v0.8h-3.3V27h-1v-7.1H20.5z"/>
		<path fill="#565656" d="M21.4,20.9v-1h0.9v1H21.4z M22.3,21.8V27h-0.9v-5.2H22.3z"/>
		<path fill="#565656" d="M24.4,21.8v1.1h0c0.2-0.4,0.5-0.7,0.8-0.9c0.3-0.2,0.7-0.3,1.1-0.3v0.9c-0.3,0-0.6,0-0.9,0.1
			c-0.2,0.1-0.4,0.2-0.6,0.4s-0.3,0.4-0.3,0.7c-0.1,0.3-0.1,0.6-0.1,0.9V27h-0.9v-5.2H24.4z"/>
		<path fill="#565656" d="M27.6,25.8c0.1,0.1,0.2,0.2,0.3,0.3c0.1,0.1,0.3,0.1,0.4,0.2s0.3,0,0.5,0c0.1,0,0.3,0,0.4,0
			c0.1,0,0.3-0.1,0.4-0.1c0.1-0.1,0.2-0.1,0.3-0.2c0.1-0.1,0.1-0.2,0.1-0.4c0-0.2-0.1-0.4-0.2-0.5c-0.2-0.1-0.4-0.2-0.6-0.3
			c-0.2-0.1-0.5-0.1-0.8-0.2s-0.6-0.1-0.8-0.2c-0.2-0.1-0.5-0.2-0.6-0.4s-0.2-0.4-0.2-0.8c0-0.3,0.1-0.5,0.2-0.7
			c0.1-0.2,0.3-0.3,0.4-0.5c0.2-0.1,0.4-0.2,0.6-0.3s0.5-0.1,0.7-0.1c0.3,0,0.6,0,0.8,0.1c0.2,0,0.5,0.1,0.7,0.3s0.3,0.3,0.5,0.5
			s0.2,0.5,0.2,0.8h-0.9c0-0.2-0.1-0.3-0.1-0.4c-0.1-0.1-0.2-0.2-0.3-0.3c-0.1-0.1-0.2-0.1-0.4-0.1s-0.3,0-0.4,0c-0.1,0-0.3,0-0.4,0
			c-0.1,0-0.2,0.1-0.4,0.1c-0.1,0-0.2,0.1-0.3,0.2c-0.1,0.1-0.1,0.2-0.1,0.3c0,0.1,0.1,0.3,0.2,0.4c0.1,0.1,0.2,0.2,0.4,0.2
			c0.2,0.1,0.3,0.1,0.5,0.2c0.2,0,0.4,0.1,0.6,0.1c0.2,0,0.4,0.1,0.6,0.2c0.2,0.1,0.4,0.2,0.5,0.3s0.3,0.2,0.4,0.4
			c0.1,0.2,0.1,0.4,0.1,0.6c0,0.3-0.1,0.6-0.2,0.8c-0.1,0.2-0.3,0.4-0.5,0.5c-0.2,0.1-0.4,0.2-0.7,0.3c-0.3,0-0.5,0.1-0.8,0.1
			c-0.3,0-0.6,0-0.8-0.1c-0.3-0.1-0.5-0.2-0.7-0.3c-0.2-0.1-0.4-0.3-0.5-0.5c-0.1-0.2-0.2-0.5-0.2-0.8h0.9
			C27.5,25.6,27.5,25.7,27.6,25.8z"/>
		<path fill="#565656" d="M34.1,21.8v0.8h-1v3.2c0,0.1,0,0.2,0,0.2c0,0.1,0,0.1,0.1,0.1c0,0,0.1,0.1,0.2,0.1c0.1,0,0.2,0,0.3,0h0.4
			V27h-0.6c-0.2,0-0.4,0-0.6,0c-0.2,0-0.3-0.1-0.4-0.2s-0.2-0.2-0.2-0.3c0-0.1-0.1-0.3-0.1-0.6v-3.3h-0.9v-0.8h0.9v-1.5h0.8v1.5
			H34.1z"/>
		<path fill="#565656" d="M39,19.9l3.8,5.8h0v-5.8h0.9V27h-1l-3.7-5.7h0V27H38v-7.1H39z"/>
		<path fill="#565656" d="M49.7,27c-0.1,0.1-0.4,0.1-0.6,0.1c-0.2,0-0.4-0.1-0.5-0.2s-0.2-0.3-0.2-0.6c-0.2,0.3-0.5,0.5-0.8,0.6
			c-0.3,0.1-0.6,0.2-1,0.2c-0.2,0-0.5,0-0.7-0.1c-0.2-0.1-0.4-0.1-0.5-0.2s-0.3-0.3-0.4-0.4c-0.1-0.2-0.1-0.4-0.1-0.7
			c0-0.3,0.1-0.5,0.1-0.7c0.1-0.2,0.2-0.3,0.4-0.5c0.2-0.1,0.4-0.2,0.6-0.3c0.2-0.1,0.4-0.1,0.6-0.2c0.2,0,0.5-0.1,0.7-0.1
			c0.2,0,0.4-0.1,0.6-0.1s0.3-0.1,0.4-0.2c0.1-0.1,0.1-0.2,0.1-0.4c0-0.2,0-0.3-0.1-0.5c-0.1-0.1-0.2-0.2-0.3-0.3
			c-0.1-0.1-0.2-0.1-0.4-0.1c-0.1,0-0.3,0-0.4,0c-0.4,0-0.7,0.1-0.9,0.2c-0.2,0.1-0.4,0.4-0.4,0.8H45c0-0.3,0.1-0.6,0.2-0.8
			c0.1-0.2,0.3-0.4,0.5-0.5c0.2-0.1,0.4-0.2,0.7-0.3c0.3-0.1,0.5-0.1,0.8-0.1c0.2,0,0.5,0,0.7,0s0.4,0.1,0.6,0.2
			c0.2,0.1,0.3,0.2,0.5,0.4s0.2,0.4,0.2,0.7v2.7c0,0.2,0,0.3,0,0.4c0,0.1,0.1,0.1,0.2,0.1c0.1,0,0.2,0,0.3-0.1V27z M48.3,24.3
			c-0.1,0.1-0.2,0.1-0.4,0.2c-0.2,0-0.4,0.1-0.5,0.1s-0.4,0-0.6,0.1s-0.4,0.1-0.5,0.1c-0.2,0.1-0.3,0.2-0.4,0.3
			c-0.1,0.1-0.1,0.3-0.1,0.5c0,0.1,0,0.3,0.1,0.4c0.1,0.1,0.1,0.2,0.2,0.2c0.1,0.1,0.2,0.1,0.3,0.1c0.1,0,0.2,0,0.4,0
			c0.3,0,0.5,0,0.7-0.1c0.2-0.1,0.4-0.2,0.5-0.3c0.1-0.1,0.2-0.2,0.3-0.4s0.1-0.3,0.1-0.4V24.3z"/>
		<path fill="#565656" d="M51.2,21.8v0.8h0c0.4-0.6,0.9-0.9,1.7-0.9c0.3,0,0.6,0.1,0.9,0.2c0.3,0.1,0.4,0.4,0.5,0.7
			c0.2-0.3,0.4-0.5,0.7-0.6s0.6-0.2,0.9-0.2c0.3,0,0.5,0,0.7,0.1s0.4,0.1,0.5,0.3c0.1,0.1,0.3,0.3,0.4,0.5c0.1,0.2,0.1,0.4,0.1,0.7
			V27h-0.9v-3.4c0-0.2,0-0.3,0-0.5c0-0.1-0.1-0.3-0.1-0.4c-0.1-0.1-0.2-0.2-0.3-0.2c-0.1-0.1-0.3-0.1-0.5-0.1c-0.4,0-0.8,0.1-1,0.4
			c-0.2,0.2-0.4,0.6-0.4,1V27h-0.9v-3.4c0-0.2,0-0.3,0-0.5c0-0.1-0.1-0.3-0.2-0.4c-0.1-0.1-0.2-0.2-0.3-0.2
			c-0.1-0.1-0.3-0.1-0.5-0.1c-0.2,0-0.5,0-0.6,0.2c-0.2,0.1-0.3,0.2-0.4,0.4c-0.1,0.1-0.2,0.3-0.2,0.4c0,0.1-0.1,0.3-0.1,0.4V27
			h-0.9v-5.2H51.2z"/>
		<path fill="#565656" d="M62.6,26.7c-0.4,0.3-0.9,0.4-1.5,0.4c-0.4,0-0.8-0.1-1.1-0.2c-0.3-0.1-0.6-0.3-0.8-0.6
			c-0.2-0.2-0.4-0.5-0.5-0.9c-0.1-0.3-0.2-0.7-0.2-1.1c0-0.4,0.1-0.8,0.2-1.1c0.1-0.3,0.3-0.6,0.5-0.9c0.2-0.2,0.5-0.4,0.8-0.6
			c0.3-0.1,0.6-0.2,1-0.2c0.5,0,0.8,0.1,1.1,0.3c0.3,0.2,0.5,0.4,0.7,0.7c0.2,0.3,0.3,0.6,0.4,1c0.1,0.3,0.1,0.7,0.1,1h-3.9
			c0,0.2,0,0.4,0.1,0.6c0.1,0.2,0.2,0.4,0.3,0.5c0.1,0.2,0.3,0.3,0.5,0.4c0.2,0.1,0.4,0.1,0.7,0.1c0.4,0,0.7-0.1,0.9-0.2
			s0.4-0.4,0.5-0.8h0.8C63.3,25.9,63,26.4,62.6,26.7z M62.4,23.3c-0.1-0.2-0.2-0.3-0.3-0.5c-0.1-0.1-0.3-0.2-0.5-0.3
			c-0.2-0.1-0.4-0.1-0.6-0.1c-0.2,0-0.4,0-0.6,0.1c-0.2,0.1-0.3,0.2-0.5,0.3c-0.1,0.1-0.2,0.3-0.3,0.5c-0.1,0.2-0.1,0.4-0.1,0.6h3
			C62.6,23.7,62.5,23.5,62.4,23.3z"/>
	</g>
	<g enable-background="new    ">
		<path fill="#565656" d="M20.7,55.9v0.8h-4v2.3h3.7v0.8h-3.7v2.5h4V63h-5v-7.1H20.7z"/>
		<path fill="#565656" d="M22.5,57.8v0.8h0c0.4-0.6,0.9-0.9,1.7-0.9c0.3,0,0.6,0.1,0.9,0.2c0.3,0.1,0.4,0.4,0.5,0.7
			c0.2-0.3,0.4-0.5,0.7-0.6s0.6-0.2,0.9-0.2c0.3,0,0.5,0,0.7,0.1s0.4,0.1,0.5,0.3c0.1,0.1,0.3,0.3,0.4,0.5c0.1,0.2,0.1,0.4,0.1,0.7
			V63h-0.9v-3.4c0-0.2,0-0.3,0-0.5c0-0.1-0.1-0.3-0.1-0.4c-0.1-0.1-0.2-0.2-0.3-0.2c-0.1-0.1-0.3-0.1-0.5-0.1c-0.4,0-0.8,0.1-1,0.4
			c-0.2,0.2-0.4,0.6-0.4,1V63h-0.9v-3.4c0-0.2,0-0.3,0-0.5c0-0.1-0.1-0.3-0.2-0.4c-0.1-0.1-0.2-0.2-0.3-0.2
			c-0.1-0.1-0.3-0.1-0.5-0.1c-0.2,0-0.5,0-0.6,0.2c-0.2,0.1-0.3,0.2-0.4,0.4c-0.1,0.1-0.2,0.3-0.2,0.4c0,0.1-0.1,0.3-0.1,0.4V63
			h-0.9v-5.2H22.5z"/>
		<path fill="#565656" d="M34.9,63c-0.1,0.1-0.4,0.1-0.6,0.1c-0.2,0-0.4-0.1-0.5-0.2s-0.2-0.3-0.2-0.6c-0.2,0.3-0.5,0.5-0.8,0.6
			c-0.3,0.1-0.6,0.2-1,0.2c-0.2,0-0.5,0-0.7-0.1c-0.2-0.1-0.4-0.1-0.5-0.2s-0.3-0.3-0.4-0.4C30,62.2,30,61.9,30,61.7
			c0-0.3,0.1-0.5,0.1-0.7c0.1-0.2,0.2-0.3,0.4-0.5c0.2-0.1,0.4-0.2,0.6-0.3c0.2-0.1,0.4-0.1,0.6-0.2c0.2,0,0.5-0.1,0.7-0.1
			c0.2,0,0.4-0.1,0.6-0.1s0.3-0.1,0.4-0.2c0.1-0.1,0.1-0.2,0.1-0.4c0-0.2,0-0.3-0.1-0.5c-0.1-0.1-0.2-0.2-0.3-0.3
			c-0.1-0.1-0.2-0.1-0.4-0.1c-0.1,0-0.3,0-0.4,0c-0.4,0-0.7,0.1-0.9,0.2c-0.2,0.1-0.4,0.4-0.4,0.8h-0.9c0-0.3,0.1-0.6,0.2-0.8
			c0.1-0.2,0.3-0.4,0.5-0.5c0.2-0.1,0.4-0.2,0.7-0.3c0.3-0.1,0.5-0.1,0.8-0.1c0.2,0,0.5,0,0.7,0s0.4,0.1,0.6,0.2
			c0.2,0.1,0.3,0.2,0.5,0.4s0.2,0.4,0.2,0.7v2.7c0,0.2,0,0.3,0,0.4c0,0.1,0.1,0.1,0.2,0.1c0.1,0,0.2,0,0.3-0.1V63z M33.5,60.3
			c-0.1,0.1-0.2,0.1-0.4,0.2c-0.2,0-0.4,0.1-0.5,0.1s-0.4,0-0.6,0.1s-0.4,0.1-0.5,0.1c-0.2,0.1-0.3,0.2-0.4,0.3
			c-0.1,0.1-0.1,0.3-0.1,0.5c0,0.1,0,0.3,0.1,0.4c0.1,0.1,0.1,0.2,0.2,0.2c0.1,0.1,0.2,0.1,0.3,0.1c0.1,0,0.2,0,0.4,0
			c0.3,0,0.5,0,0.7-0.1c0.2-0.1,0.4-0.2,0.5-0.3c0.1-0.1,0.2-0.2,0.3-0.4s0.1-0.3,0.1-0.4V60.3z"/>
		<path fill="#565656" d="M35.7,56.9v-1h0.9v1H35.7z M36.5,57.8V63h-0.9v-5.2H36.5z"/>
		<path fill="#565656" d="M38.8,55.9V63h-0.9v-7.1H38.8z"/>
		<path fill="#565656" d="M46,55.9l2.8,7.1h-1.1L47,60.8h-3L43.1,63h-1l2.8-7.1H46z M46.7,60l-1.2-3.3h0L44.2,60H46.7z"/>
		<path fill="#565656" d="M53.1,63v-0.7h0c-0.1,0.3-0.4,0.5-0.7,0.6s-0.6,0.2-1,0.2c-0.4,0-0.7-0.1-1-0.2c-0.3-0.1-0.5-0.3-0.7-0.6
			c-0.2-0.2-0.3-0.5-0.4-0.9c-0.1-0.3-0.1-0.7-0.1-1c0-0.4,0-0.7,0.1-1c0.1-0.3,0.2-0.6,0.4-0.9s0.4-0.4,0.7-0.6
			c0.3-0.1,0.6-0.2,1-0.2c0.1,0,0.3,0,0.4,0s0.3,0.1,0.5,0.1s0.3,0.1,0.4,0.2s0.3,0.2,0.3,0.4h0v-2.7H54V63H53.1z M50.1,61.2
			c0.1,0.2,0.2,0.4,0.3,0.6c0.1,0.2,0.3,0.3,0.5,0.4c0.2,0.1,0.4,0.2,0.7,0.2c0.3,0,0.5-0.1,0.7-0.2c0.2-0.1,0.4-0.3,0.5-0.4
			c0.1-0.2,0.2-0.4,0.3-0.6s0.1-0.5,0.1-0.7c0-0.3,0-0.5-0.1-0.7c-0.1-0.2-0.2-0.4-0.3-0.6c-0.1-0.2-0.3-0.3-0.5-0.4
			s-0.5-0.2-0.8-0.2c-0.3,0-0.5,0.1-0.7,0.2c-0.2,0.1-0.4,0.3-0.5,0.5s-0.2,0.4-0.3,0.6C50,60,50,60.2,50,60.5
			C50,60.7,50,60.9,50.1,61.2z"/>
		<path fill="#565656" d="M59,63v-0.7h0c-0.1,0.3-0.4,0.5-0.7,0.6s-0.6,0.2-1,0.2c-0.4,0-0.7-0.1-1-0.2c-0.3-0.1-0.5-0.3-0.7-0.6
			c-0.2-0.2-0.3-0.5-0.4-0.9c-0.1-0.3-0.1-0.7-0.1-1c0-0.4,0-0.7,0.1-1c0.1-0.3,0.2-0.6,0.4-0.9s0.4-0.4,0.7-0.6
			c0.3-0.1,0.6-0.2,1-0.2c0.1,0,0.3,0,0.4,0s0.3,0.1,0.5,0.1s0.3,0.1,0.4,0.2s0.3,0.2,0.3,0.4h0v-2.7h0.8V63H59z M56,61.2
			c0.1,0.2,0.2,0.4,0.3,0.6c0.1,0.2,0.3,0.3,0.5,0.4c0.2,0.1,0.4,0.2,0.7,0.2c0.3,0,0.5-0.1,0.7-0.2c0.2-0.1,0.4-0.3,0.5-0.4
			c0.1-0.2,0.2-0.4,0.3-0.6s0.1-0.5,0.1-0.7c0-0.3,0-0.5-0.1-0.7c-0.1-0.2-0.2-0.4-0.3-0.6c-0.1-0.2-0.3-0.3-0.5-0.4
			s-0.5-0.2-0.8-0.2c-0.3,0-0.5,0.1-0.7,0.2c-0.2,0.1-0.4,0.3-0.5,0.5S56,59.5,56,59.7c-0.1,0.2-0.1,0.5-0.1,0.7
			C55.9,60.7,55.9,60.9,56,61.2z"/>
		<path fill="#565656" d="M62,57.8v1.1h0c0.2-0.4,0.5-0.7,0.8-0.9c0.3-0.2,0.7-0.3,1.1-0.3v0.9c-0.3,0-0.6,0-0.9,0.1
			c-0.2,0.1-0.4,0.2-0.6,0.4s-0.3,0.4-0.3,0.7c-0.1,0.3-0.1,0.6-0.1,0.9V63h-0.9v-5.2H62z"/>
		<path fill="#565656" d="M68,62.7c-0.4,0.3-0.9,0.4-1.5,0.4c-0.4,0-0.8-0.1-1.1-0.2c-0.3-0.1-0.6-0.3-0.8-0.6
			c-0.2-0.2-0.4-0.5-0.5-0.9c-0.1-0.3-0.2-0.7-0.2-1.1c0-0.4,0.1-0.8,0.2-1.1c0.1-0.3,0.3-0.6,0.5-0.9c0.2-0.2,0.5-0.4,0.8-0.6
			c0.3-0.1,0.6-0.2,1-0.2c0.5,0,0.8,0.1,1.1,0.3c0.3,0.2,0.5,0.4,0.7,0.7c0.2,0.3,0.3,0.6,0.4,1c0.1,0.3,0.1,0.7,0.1,1H65
			c0,0.2,0,0.4,0.1,0.6c0.1,0.2,0.2,0.4,0.3,0.5c0.1,0.2,0.3,0.3,0.5,0.4c0.2,0.1,0.4,0.1,0.7,0.1c0.4,0,0.7-0.1,0.9-0.2
			s0.4-0.4,0.5-0.8h0.8C68.7,61.9,68.4,62.4,68,62.7z M67.8,59.3c-0.1-0.2-0.2-0.3-0.3-0.5c-0.1-0.1-0.3-0.2-0.5-0.3
			c-0.2-0.1-0.4-0.1-0.6-0.1c-0.2,0-0.4,0-0.6,0.1c-0.2,0.1-0.3,0.2-0.5,0.3c-0.1,0.1-0.2,0.3-0.3,0.5C65,59.5,65,59.7,65,59.9h3
			C67.9,59.7,67.9,59.5,67.8,59.3z"/>
		<path fill="#565656" d="M70.4,61.8c0.1,0.1,0.2,0.2,0.3,0.3c0.1,0.1,0.3,0.1,0.4,0.2s0.3,0,0.5,0c0.1,0,0.3,0,0.4,0
			c0.1,0,0.3-0.1,0.4-0.1c0.1-0.1,0.2-0.1,0.3-0.2c0.1-0.1,0.1-0.2,0.1-0.4c0-0.2-0.1-0.4-0.2-0.5c-0.2-0.1-0.4-0.2-0.6-0.3
			c-0.2-0.1-0.5-0.1-0.8-0.2s-0.6-0.1-0.8-0.2c-0.2-0.1-0.5-0.2-0.6-0.4s-0.2-0.4-0.2-0.8c0-0.3,0.1-0.5,0.2-0.7
			c0.1-0.2,0.3-0.3,0.4-0.5c0.2-0.1,0.4-0.2,0.6-0.3s0.5-0.1,0.7-0.1c0.3,0,0.6,0,0.8,0.1c0.2,0,0.5,0.1,0.7,0.3s0.3,0.3,0.5,0.5
			s0.2,0.5,0.2,0.8h-0.9c0-0.2-0.1-0.3-0.1-0.4c-0.1-0.1-0.2-0.2-0.3-0.3c-0.1-0.1-0.2-0.1-0.4-0.1s-0.3,0-0.4,0c-0.1,0-0.3,0-0.4,0
			c-0.1,0-0.2,0.1-0.4,0.1c-0.1,0-0.2,0.1-0.3,0.2c-0.1,0.1-0.1,0.2-0.1,0.3c0,0.1,0.1,0.3,0.2,0.4c0.1,0.1,0.2,0.2,0.4,0.2
			c0.2,0.1,0.3,0.1,0.5,0.2c0.2,0,0.4,0.1,0.6,0.1c0.2,0,0.4,0.1,0.6,0.2c0.2,0.1,0.4,0.2,0.5,0.3s0.3,0.2,0.4,0.4
			c0.1,0.2,0.1,0.4,0.1,0.6c0,0.3-0.1,0.6-0.2,0.8c-0.1,0.2-0.3,0.4-0.5,0.5c-0.2,0.1-0.4,0.2-0.7,0.3c-0.3,0-0.5,0.1-0.8,0.1
			c-0.3,0-0.6,0-0.8-0.1c-0.3-0.1-0.5-0.2-0.7-0.3c-0.2-0.1-0.4-0.3-0.5-0.5c-0.1-0.2-0.2-0.5-0.2-0.8h0.9
			C70.3,61.6,70.3,61.7,70.4,61.8z"/>
		<path fill="#565656" d="M75.4,61.8c0.1,0.1,0.2,0.2,0.3,0.3c0.1,0.1,0.3,0.1,0.4,0.2s0.3,0,0.5,0c0.1,0,0.3,0,0.4,0
			c0.1,0,0.3-0.1,0.4-0.1c0.1-0.1,0.2-0.1,0.3-0.2c0.1-0.1,0.1-0.2,0.1-0.4c0-0.2-0.1-0.4-0.2-0.5c-0.2-0.1-0.4-0.2-0.6-0.3
			c-0.2-0.1-0.5-0.1-0.8-0.2s-0.6-0.1-0.8-0.2c-0.2-0.1-0.5-0.2-0.6-0.4s-0.2-0.4-0.2-0.8c0-0.3,0.1-0.5,0.2-0.7
			c0.1-0.2,0.3-0.3,0.4-0.5c0.2-0.1,0.4-0.2,0.6-0.3s0.5-0.1,0.7-0.1c0.3,0,0.6,0,0.8,0.1c0.2,0,0.5,0.1,0.7,0.3s0.3,0.3,0.5,0.5
			s0.2,0.5,0.2,0.8h-0.9c0-0.2-0.1-0.3-0.1-0.4c-0.1-0.1-0.2-0.2-0.3-0.3c-0.1-0.1-0.2-0.1-0.4-0.1s-0.3,0-0.4,0c-0.1,0-0.3,0-0.4,0
			c-0.1,0-0.2,0.1-0.4,0.1c-0.1,0-0.2,0.1-0.3,0.2c-0.1,0.1-0.1,0.2-0.1,0.3c0,0.1,0.1,0.3,0.2,0.4c0.1,0.1,0.2,0.2,0.4,0.2
			c0.2,0.1,0.3,0.1,0.5,0.2c0.2,0,0.4,0.1,0.6,0.1c0.2,0,0.4,0.1,0.6,0.2c0.2,0.1,0.4,0.2,0.5,0.3s0.3,0.2,0.4,0.4
			c0.1,0.2,0.1,0.4,0.1,0.6c0,0.3-0.1,0.6-0.2,0.8c-0.1,0.2-0.3,0.4-0.5,0.5c-0.2,0.1-0.4,0.2-0.7,0.3c-0.3,0-0.5,0.1-0.8,0.1
			c-0.3,0-0.6,0-0.8-0.1c-0.3-0.1-0.5-0.2-0.7-0.3c-0.2-0.1-0.4-0.3-0.5-0.5c-0.1-0.2-0.2-0.5-0.2-0.8h0.9
			C75.3,61.6,75.3,61.7,75.4,61.8z"/>
	</g>
	<g enable-background="new    ">
		<path fill="#565656" d="M17.1,91.9l2.2,6l2.3-6h1.3V99H22v-5.9h0L19.8,99H19l-2.2-5.9h0V99h-0.9v-7.1H17.1z"/>
		<path fill="#565656" d="M28,98.7c-0.4,0.3-0.9,0.4-1.5,0.4c-0.4,0-0.8-0.1-1.1-0.2c-0.3-0.1-0.6-0.3-0.8-0.6
			c-0.2-0.2-0.4-0.5-0.5-0.9c-0.1-0.3-0.2-0.7-0.2-1.1c0-0.4,0.1-0.8,0.2-1.1c0.1-0.3,0.3-0.6,0.5-0.9c0.2-0.2,0.5-0.4,0.8-0.6
			c0.3-0.1,0.6-0.2,1-0.2c0.5,0,0.8,0.1,1.1,0.3c0.3,0.2,0.5,0.4,0.7,0.7c0.2,0.3,0.3,0.6,0.4,1c0.1,0.3,0.1,0.7,0.1,1H25
			c0,0.2,0,0.4,0.1,0.6c0.1,0.2,0.2,0.4,0.3,0.5c0.1,0.2,0.3,0.3,0.5,0.4c0.2,0.1,0.4,0.1,0.7,0.1c0.4,0,0.7-0.1,0.9-0.2
			s0.4-0.4,0.5-0.8h0.8C28.6,97.9,28.4,98.4,28,98.7z M27.8,95.3c-0.1-0.2-0.2-0.3-0.3-0.5c-0.1-0.1-0.3-0.2-0.5-0.3
			c-0.2-0.1-0.4-0.1-0.6-0.1c-0.2,0-0.4,0-0.6,0.1c-0.2,0.1-0.3,0.2-0.5,0.3c-0.1,0.1-0.2,0.3-0.3,0.5C25,95.5,25,95.7,25,95.9h3
			C27.9,95.7,27.9,95.5,27.8,95.3z"/>
		<path fill="#565656" d="M30.4,97.8c0.1,0.1,0.2,0.2,0.3,0.3c0.1,0.1,0.3,0.1,0.4,0.2s0.3,0,0.5,0c0.1,0,0.3,0,0.4,0
			c0.1,0,0.3-0.1,0.4-0.1c0.1-0.1,0.2-0.1,0.3-0.2c0.1-0.1,0.1-0.2,0.1-0.4c0-0.2-0.1-0.4-0.2-0.5c-0.2-0.1-0.4-0.2-0.6-0.3
			c-0.2-0.1-0.5-0.1-0.8-0.2s-0.6-0.1-0.8-0.2c-0.2-0.1-0.5-0.2-0.6-0.4s-0.2-0.4-0.2-0.8c0-0.3,0.1-0.5,0.2-0.7
			c0.1-0.2,0.3-0.3,0.4-0.5c0.2-0.1,0.4-0.2,0.6-0.3s0.5-0.1,0.7-0.1c0.3,0,0.6,0,0.8,0.1c0.2,0,0.5,0.1,0.7,0.3s0.3,0.3,0.5,0.5
			s0.2,0.5,0.2,0.8h-0.9c0-0.2-0.1-0.3-0.1-0.4c-0.1-0.1-0.2-0.2-0.3-0.3c-0.1-0.1-0.2-0.1-0.4-0.1s-0.3,0-0.4,0c-0.1,0-0.3,0-0.4,0
			c-0.1,0-0.2,0.1-0.4,0.1c-0.1,0-0.2,0.1-0.3,0.2c-0.1,0.1-0.1,0.2-0.1,0.3c0,0.1,0.1,0.3,0.2,0.4c0.1,0.1,0.2,0.2,0.4,0.2
			c0.2,0.1,0.3,0.1,0.5,0.2c0.2,0,0.4,0.1,0.6,0.1c0.2,0,0.4,0.1,0.6,0.2c0.2,0.1,0.4,0.2,0.5,0.3s0.3,0.2,0.4,0.4
			c0.1,0.2,0.1,0.4,0.1,0.6c0,0.3-0.1,0.6-0.2,0.8c-0.1,0.2-0.3,0.4-0.5,0.5c-0.2,0.1-0.4,0.2-0.7,0.3c-0.3,0-0.5,0.1-0.8,0.1
			c-0.3,0-0.6,0-0.8-0.1c-0.3-0.1-0.5-0.2-0.7-0.3c-0.2-0.1-0.4-0.3-0.5-0.5c-0.1-0.2-0.2-0.5-0.2-0.8h0.9
			C30.2,97.6,30.3,97.7,30.4,97.8z"/>
		<path fill="#565656" d="M35.4,97.8c0.1,0.1,0.2,0.2,0.3,0.3c0.1,0.1,0.3,0.1,0.4,0.2s0.3,0,0.5,0c0.1,0,0.3,0,0.4,0
			c0.1,0,0.3-0.1,0.4-0.1c0.1-0.1,0.2-0.1,0.3-0.2c0.1-0.1,0.1-0.2,0.1-0.4c0-0.2-0.1-0.4-0.2-0.5c-0.2-0.1-0.4-0.2-0.6-0.3
			c-0.2-0.1-0.5-0.1-0.8-0.2s-0.6-0.1-0.8-0.2c-0.2-0.1-0.5-0.2-0.6-0.4s-0.2-0.4-0.2-0.8c0-0.3,0.1-0.5,0.2-0.7
			c0.1-0.2,0.3-0.3,0.4-0.5c0.2-0.1,0.4-0.2,0.6-0.3s0.5-0.1,0.7-0.1c0.3,0,0.6,0,0.8,0.1c0.2,0,0.5,0.1,0.7,0.3s0.3,0.3,0.5,0.5
			s0.2,0.5,0.2,0.8h-0.9c0-0.2-0.1-0.3-0.1-0.4c-0.1-0.1-0.2-0.2-0.3-0.3c-0.1-0.1-0.2-0.1-0.4-0.1s-0.3,0-0.4,0c-0.1,0-0.3,0-0.4,0
			c-0.1,0-0.2,0.1-0.4,0.1c-0.1,0-0.2,0.1-0.3,0.2c-0.1,0.1-0.1,0.2-0.1,0.3c0,0.1,0.1,0.3,0.2,0.4c0.1,0.1,0.2,0.2,0.4,0.2
			c0.2,0.1,0.3,0.1,0.5,0.2c0.2,0,0.4,0.1,0.6,0.1c0.2,0,0.4,0.1,0.6,0.2c0.2,0.1,0.4,0.2,0.5,0.3s0.3,0.2,0.4,0.4
			c0.1,0.2,0.1,0.4,0.1,0.6c0,0.3-0.1,0.6-0.2,0.8c-0.1,0.2-0.3,0.4-0.5,0.5c-0.2,0.1-0.4,0.2-0.7,0.3c-0.3,0-0.5,0.1-0.8,0.1
			c-0.3,0-0.6,0-0.8-0.1c-0.3-0.1-0.5-0.2-0.7-0.3c-0.2-0.1-0.4-0.3-0.5-0.5c-0.1-0.2-0.2-0.5-0.2-0.8h0.9
			C35.2,97.6,35.3,97.7,35.4,97.8z"/>
		<path fill="#565656" d="M44.3,99c-0.1,0.1-0.4,0.1-0.6,0.1c-0.2,0-0.4-0.1-0.5-0.2S43,98.6,43,98.3c-0.2,0.3-0.5,0.5-0.8,0.6
			c-0.3,0.1-0.6,0.2-1,0.2c-0.2,0-0.5,0-0.7-0.1c-0.2-0.1-0.4-0.1-0.5-0.2s-0.3-0.3-0.4-0.4c-0.1-0.2-0.1-0.4-0.1-0.7
			c0-0.3,0.1-0.5,0.1-0.7c0.1-0.2,0.2-0.3,0.4-0.5c0.2-0.1,0.4-0.2,0.6-0.3c0.2-0.1,0.4-0.1,0.6-0.2c0.2,0,0.5-0.1,0.7-0.1
			c0.2,0,0.4-0.1,0.6-0.1s0.3-0.1,0.4-0.2c0.1-0.1,0.1-0.2,0.1-0.4c0-0.2,0-0.3-0.1-0.5c-0.1-0.1-0.2-0.2-0.3-0.3
			c-0.1-0.1-0.2-0.1-0.4-0.1c-0.1,0-0.3,0-0.4,0c-0.4,0-0.7,0.1-0.9,0.2c-0.2,0.1-0.4,0.4-0.4,0.8h-0.9c0-0.3,0.1-0.6,0.2-0.8
			c0.1-0.2,0.3-0.4,0.5-0.5c0.2-0.1,0.4-0.2,0.7-0.3c0.3-0.1,0.5-0.1,0.8-0.1c0.2,0,0.5,0,0.7,0s0.4,0.1,0.6,0.2
			c0.2,0.1,0.3,0.2,0.5,0.4s0.2,0.4,0.2,0.7v2.7c0,0.2,0,0.3,0,0.4c0,0.1,0.1,0.1,0.2,0.1c0.1,0,0.2,0,0.3-0.1V99z M42.9,96.3
			c-0.1,0.1-0.2,0.1-0.4,0.2c-0.2,0-0.4,0.1-0.5,0.1s-0.4,0-0.6,0.1s-0.4,0.1-0.5,0.1c-0.2,0.1-0.3,0.2-0.4,0.3
			c-0.1,0.1-0.1,0.3-0.1,0.5c0,0.1,0,0.3,0.1,0.4c0.1,0.1,0.1,0.2,0.2,0.2c0.1,0.1,0.2,0.1,0.3,0.1c0.1,0,0.2,0,0.4,0
			c0.3,0,0.5,0,0.7-0.1c0.2-0.1,0.4-0.2,0.5-0.3c0.1-0.1,0.2-0.2,0.3-0.4s0.1-0.3,0.1-0.4V96.3z"/>
		<path fill="#565656" d="M49,100.5c-0.4,0.4-1,0.6-1.8,0.6c-0.2,0-0.5,0-0.7-0.1c-0.2-0.1-0.5-0.1-0.7-0.3
			c-0.2-0.1-0.4-0.3-0.5-0.5S45,99.8,45,99.6h0.9c0,0.2,0.1,0.3,0.1,0.4c0.1,0.1,0.2,0.2,0.3,0.3c0.1,0.1,0.3,0.1,0.4,0.1
			c0.2,0,0.3,0,0.4,0c0.3,0,0.5,0,0.7-0.1s0.4-0.2,0.5-0.4s0.2-0.4,0.3-0.6s0.1-0.5,0.1-0.8v-0.3h0c-0.1,0.3-0.4,0.6-0.7,0.7
			C47.8,99,47.5,99,47.1,99c-0.4,0-0.7-0.1-1-0.2c-0.3-0.1-0.5-0.3-0.7-0.6c-0.2-0.2-0.3-0.5-0.4-0.8s-0.1-0.7-0.1-1
			c0-0.3,0-0.6,0.1-0.9s0.2-0.6,0.4-0.9s0.4-0.5,0.7-0.7s0.7-0.3,1.1-0.3c0.3,0,0.6,0.1,0.9,0.2s0.5,0.4,0.6,0.6h0v-0.7h0.8v4.7
			C49.5,99.4,49.4,100,49,100.5z M47.9,98.1c0.2-0.1,0.4-0.3,0.5-0.5c0.1-0.2,0.2-0.4,0.3-0.6c0.1-0.2,0.1-0.5,0.1-0.7
			c0-0.2,0-0.4-0.1-0.7c-0.1-0.2-0.1-0.4-0.3-0.6s-0.3-0.3-0.5-0.4c-0.2-0.1-0.4-0.2-0.7-0.2c-0.3,0-0.5,0.1-0.7,0.2
			s-0.4,0.2-0.5,0.4c-0.1,0.2-0.2,0.4-0.3,0.6c-0.1,0.2-0.1,0.5-0.1,0.7c0,0.2,0,0.5,0.1,0.7c0,0.2,0.1,0.4,0.2,0.6
			c0.1,0.2,0.3,0.3,0.5,0.5c0.2,0.1,0.4,0.2,0.7,0.2C47.4,98.3,47.7,98.3,47.9,98.1z"/>
		<path fill="#565656" d="M54.5,98.7c-0.4,0.3-0.9,0.4-1.5,0.4c-0.4,0-0.8-0.1-1.1-0.2c-0.3-0.1-0.6-0.3-0.8-0.6
			c-0.2-0.2-0.4-0.5-0.5-0.9c-0.1-0.3-0.2-0.7-0.2-1.1c0-0.4,0.1-0.8,0.2-1.1c0.1-0.3,0.3-0.6,0.5-0.9c0.2-0.2,0.5-0.4,0.8-0.6
			c0.3-0.1,0.6-0.2,1-0.2c0.5,0,0.8,0.1,1.1,0.3c0.3,0.2,0.5,0.4,0.7,0.7c0.2,0.3,0.3,0.6,0.4,1c0.1,0.3,0.1,0.7,0.1,1h-3.9
			c0,0.2,0,0.4,0.1,0.6c0.1,0.2,0.2,0.4,0.3,0.5c0.1,0.2,0.3,0.3,0.5,0.4c0.2,0.1,0.4,0.1,0.7,0.1c0.4,0,0.7-0.1,0.9-0.2
			s0.4-0.4,0.5-0.8h0.8C55.1,97.9,54.9,98.4,54.5,98.7z M54.3,95.3c-0.1-0.2-0.2-0.3-0.3-0.5c-0.1-0.1-0.3-0.2-0.5-0.3
			c-0.2-0.1-0.4-0.1-0.6-0.1c-0.2,0-0.4,0-0.6,0.1c-0.2,0.1-0.3,0.2-0.5,0.3c-0.1,0.1-0.2,0.3-0.3,0.5c-0.1,0.2-0.1,0.4-0.1,0.6h3
			C54.4,95.7,54.4,95.5,54.3,95.3z"/>
	</g>
	<path id="Rectangle_593" fill="#377DFF" d="M52,145h60c5.5,0,10,4.5,10,10l0,0c0,5.5-4.5,10-10,10H52c-5.5,0-10-4.5-10-10l0,0
		C42,149.5,46.5,145,52,145z"/>
	<g enable-background="new    ">
		<path fill="#FFFFFF" d="M70,156.6c0,0.3,0,0.5,0.1,0.7c0.1,0.2,0.2,0.4,0.4,0.5s0.4,0.2,0.6,0.3c0.2,0.1,0.5,0.1,0.7,0.1
			c0.3,0,0.5,0,0.7-0.1c0.2-0.1,0.4-0.1,0.5-0.2c0.1-0.1,0.2-0.2,0.3-0.3s0.1-0.3,0.1-0.4c0-0.3-0.1-0.5-0.2-0.6
			c-0.1-0.1-0.3-0.2-0.4-0.3c-0.3-0.1-0.5-0.2-0.9-0.3c-0.3-0.1-0.8-0.2-1.2-0.3c-0.3-0.1-0.6-0.2-0.8-0.3c-0.2-0.1-0.4-0.3-0.5-0.4
			c-0.1-0.2-0.2-0.3-0.3-0.5c0-0.2-0.1-0.4-0.1-0.5c0-0.4,0.1-0.7,0.2-0.9c0.1-0.3,0.3-0.5,0.6-0.7c0.2-0.2,0.5-0.3,0.8-0.4
			c0.3-0.1,0.6-0.1,1-0.1c0.4,0,0.7,0,1.1,0.1s0.6,0.2,0.9,0.4c0.2,0.2,0.4,0.4,0.6,0.7s0.2,0.6,0.2,1h-1.2c0-0.5-0.2-0.8-0.5-1
			c-0.3-0.2-0.6-0.3-1.1-0.3c-0.1,0-0.3,0-0.5,0s-0.3,0.1-0.4,0.2c-0.1,0.1-0.2,0.2-0.3,0.3c-0.1,0.1-0.1,0.3-0.1,0.4
			c0,0.3,0.1,0.5,0.2,0.6s0.4,0.3,0.6,0.3c0,0,0.1,0,0.3,0.1c0.2,0.1,0.4,0.1,0.6,0.2c0.2,0.1,0.4,0.1,0.7,0.2s0.4,0.1,0.5,0.1
			c0.2,0.1,0.4,0.2,0.6,0.3s0.3,0.3,0.4,0.4c0.1,0.2,0.2,0.3,0.3,0.5s0.1,0.4,0.1,0.6c0,0.4-0.1,0.7-0.2,1c-0.2,0.3-0.4,0.5-0.6,0.7
			c-0.3,0.2-0.6,0.3-0.9,0.4c-0.3,0.1-0.7,0.1-1,0.1c-0.4,0-0.8,0-1.1-0.2c-0.4-0.1-0.7-0.3-0.9-0.5c-0.3-0.2-0.5-0.5-0.6-0.8
			c-0.2-0.3-0.2-0.7-0.2-1.1H70z"/>
		<path fill="#FFFFFF" d="M75.6,151.9h5.1v1.1h-3.9v1.9h3.6v1h-3.6v2.1h4v1.1h-5.2V151.9z"/>
		<path fill="#FFFFFF" d="M81.9,151.9h1.3l3.3,5.3h0v-5.3h1.2v7.1h-1.3l-3.2-5.2h0v5.2h-1.2V151.9z"/>
		<path fill="#FFFFFF" d="M89.1,151.9h3c0.5,0,1,0.1,1.4,0.3c0.4,0.2,0.7,0.4,1,0.8c0.3,0.3,0.4,0.7,0.6,1.1s0.2,0.9,0.2,1.4
			c0,0.5-0.1,1-0.2,1.4s-0.3,0.8-0.6,1.1c-0.3,0.3-0.6,0.6-1,0.8c-0.4,0.2-0.9,0.3-1.4,0.3h-3V151.9z M90.4,158h1.2
			c0.5,0,0.9-0.1,1.2-0.2c0.3-0.1,0.6-0.3,0.7-0.5c0.2-0.2,0.3-0.5,0.4-0.8c0.1-0.3,0.1-0.6,0.1-1c0-0.4,0-0.7-0.1-1
			c-0.1-0.3-0.2-0.6-0.4-0.8c-0.2-0.2-0.4-0.4-0.7-0.5c-0.3-0.1-0.7-0.2-1.2-0.2h-1.2V158z"/>
	</g>
	<g enable-background="new    ">
		<path fill="#565656" d="M90.7,19.9v6.3h3.8V27h-4.7v-7.1H90.7z"/>
		<path fill="#565656" d="M99.8,27c-0.1,0.1-0.4,0.1-0.6,0.1c-0.2,0-0.4-0.1-0.5-0.2c-0.1-0.1-0.2-0.3-0.2-0.6
			c-0.2,0.3-0.5,0.5-0.8,0.6c-0.3,0.1-0.6,0.2-1,0.2c-0.2,0-0.5,0-0.7-0.1c-0.2-0.1-0.4-0.1-0.5-0.2s-0.3-0.3-0.4-0.4
			s-0.1-0.4-0.1-0.7c0-0.3,0.1-0.5,0.2-0.7s0.2-0.3,0.4-0.5c0.2-0.1,0.3-0.2,0.6-0.3c0.2-0.1,0.4-0.1,0.6-0.2c0.2,0,0.5-0.1,0.7-0.1
			c0.2,0,0.4-0.1,0.6-0.1s0.3-0.1,0.4-0.2c0.1-0.1,0.1-0.2,0.1-0.4c0-0.2,0-0.3-0.1-0.5s-0.2-0.2-0.3-0.3c-0.1-0.1-0.2-0.1-0.4-0.1
			c-0.1,0-0.3,0-0.4,0c-0.4,0-0.7,0.1-0.9,0.2c-0.2,0.1-0.4,0.4-0.4,0.8h-0.9c0-0.3,0.1-0.6,0.2-0.8c0.1-0.2,0.3-0.4,0.5-0.5
			c0.2-0.1,0.4-0.2,0.7-0.3c0.3-0.1,0.5-0.1,0.8-0.1c0.2,0,0.5,0,0.7,0s0.4,0.1,0.6,0.2c0.2,0.1,0.3,0.2,0.5,0.4s0.2,0.4,0.2,0.7
			v2.7c0,0.2,0,0.3,0,0.4c0,0.1,0.1,0.1,0.2,0.1c0.1,0,0.2,0,0.3-0.1V27z M98.4,24.3c-0.1,0.1-0.2,0.1-0.4,0.2
			c-0.2,0-0.4,0.1-0.5,0.1c-0.2,0-0.4,0-0.6,0.1s-0.4,0.1-0.5,0.1c-0.2,0.1-0.3,0.2-0.4,0.3c-0.1,0.1-0.1,0.3-0.1,0.5
			c0,0.1,0,0.3,0.1,0.4c0.1,0.1,0.1,0.2,0.2,0.2c0.1,0.1,0.2,0.1,0.3,0.1c0.1,0,0.2,0,0.4,0c0.3,0,0.5,0,0.7-0.1
			c0.2-0.1,0.4-0.2,0.5-0.3c0.1-0.1,0.2-0.2,0.3-0.4c0.1-0.1,0.1-0.3,0.1-0.4V24.3z"/>
		<path fill="#565656" d="M101.2,25.8c0.1,0.1,0.2,0.2,0.3,0.3c0.1,0.1,0.3,0.1,0.4,0.2s0.3,0,0.5,0c0.1,0,0.3,0,0.4,0
			c0.1,0,0.3-0.1,0.4-0.1c0.1-0.1,0.2-0.1,0.3-0.2s0.1-0.2,0.1-0.4c0-0.2-0.1-0.4-0.2-0.5c-0.2-0.1-0.4-0.2-0.6-0.3
			c-0.2-0.1-0.5-0.1-0.8-0.2c-0.3-0.1-0.6-0.1-0.8-0.2c-0.2-0.1-0.5-0.2-0.6-0.4s-0.2-0.4-0.2-0.8c0-0.3,0.1-0.5,0.2-0.7
			c0.1-0.2,0.3-0.3,0.4-0.5c0.2-0.1,0.4-0.2,0.6-0.3s0.5-0.1,0.7-0.1c0.3,0,0.6,0,0.8,0.1c0.2,0,0.5,0.1,0.7,0.3
			c0.2,0.1,0.3,0.3,0.5,0.5s0.2,0.5,0.2,0.8h-0.9c0-0.2-0.1-0.3-0.1-0.4c-0.1-0.1-0.2-0.2-0.3-0.3c-0.1-0.1-0.2-0.1-0.4-0.1
			s-0.3,0-0.4,0c-0.1,0-0.3,0-0.4,0c-0.1,0-0.2,0.1-0.4,0.1c-0.1,0-0.2,0.1-0.3,0.2c-0.1,0.1-0.1,0.2-0.1,0.3c0,0.1,0.1,0.3,0.2,0.4
			s0.2,0.2,0.4,0.2c0.2,0.1,0.3,0.1,0.5,0.2c0.2,0,0.4,0.1,0.6,0.1c0.2,0,0.4,0.1,0.6,0.2c0.2,0.1,0.4,0.2,0.5,0.3s0.3,0.2,0.4,0.4
			c0.1,0.2,0.1,0.4,0.1,0.6c0,0.3-0.1,0.6-0.2,0.8c-0.1,0.2-0.3,0.4-0.5,0.5c-0.2,0.1-0.4,0.2-0.7,0.3s-0.5,0.1-0.8,0.1
			c-0.3,0-0.6,0-0.8-0.1c-0.3-0.1-0.5-0.2-0.7-0.3c-0.2-0.1-0.4-0.3-0.5-0.5c-0.1-0.2-0.2-0.5-0.2-0.8h0.8
			C101.1,25.6,101.1,25.7,101.2,25.8z"/>
		<path fill="#565656" d="M107.8,21.8v0.8h-1v3.2c0,0.1,0,0.2,0,0.2c0,0.1,0,0.1,0.1,0.1s0.1,0.1,0.2,0.1c0.1,0,0.2,0,0.3,0h0.4V27
			h-0.6c-0.2,0-0.4,0-0.6,0s-0.3-0.1-0.4-0.2s-0.2-0.2-0.2-0.3c0-0.1-0.1-0.3-0.1-0.6v-3.3H105v-0.8h0.9v-1.5h0.8v1.5H107.8z"/>
		<path fill="#565656" d="M112.6,19.9l3.8,5.8h0v-5.8h0.9V27h-1l-3.7-5.7h0V27h-0.9v-7.1H112.6z"/>
		<path fill="#565656" d="M123.3,27c-0.1,0.1-0.4,0.1-0.6,0.1c-0.2,0-0.4-0.1-0.5-0.2c-0.1-0.1-0.2-0.3-0.2-0.6
			c-0.2,0.3-0.5,0.5-0.8,0.6c-0.3,0.1-0.6,0.2-1,0.2c-0.2,0-0.5,0-0.7-0.1c-0.2-0.1-0.4-0.1-0.5-0.2s-0.3-0.3-0.4-0.4
			s-0.1-0.4-0.1-0.7c0-0.3,0.1-0.5,0.2-0.7s0.2-0.3,0.4-0.5c0.2-0.1,0.3-0.2,0.6-0.3c0.2-0.1,0.4-0.1,0.6-0.2c0.2,0,0.5-0.1,0.7-0.1
			c0.2,0,0.4-0.1,0.6-0.1s0.3-0.1,0.4-0.2c0.1-0.1,0.1-0.2,0.1-0.4c0-0.2,0-0.3-0.1-0.5s-0.2-0.2-0.3-0.3c-0.1-0.1-0.2-0.1-0.4-0.1
			c-0.1,0-0.3,0-0.4,0c-0.4,0-0.7,0.1-0.9,0.2c-0.2,0.1-0.4,0.4-0.4,0.8h-0.9c0-0.3,0.1-0.6,0.2-0.8c0.1-0.2,0.3-0.4,0.5-0.5
			c0.2-0.1,0.4-0.2,0.7-0.3c0.3-0.1,0.5-0.1,0.8-0.1c0.2,0,0.5,0,0.7,0s0.4,0.1,0.6,0.2c0.2,0.1,0.3,0.2,0.5,0.4s0.2,0.4,0.2,0.7
			v2.7c0,0.2,0,0.3,0,0.4c0,0.1,0.1,0.1,0.2,0.1c0.1,0,0.2,0,0.3-0.1V27z M121.9,24.3c-0.1,0.1-0.2,0.1-0.4,0.2
			c-0.2,0-0.4,0.1-0.5,0.1c-0.2,0-0.4,0-0.6,0.1s-0.4,0.1-0.5,0.1c-0.2,0.1-0.3,0.2-0.4,0.3c-0.1,0.1-0.1,0.3-0.1,0.5
			c0,0.1,0,0.3,0.1,0.4c0.1,0.1,0.1,0.2,0.2,0.2c0.1,0.1,0.2,0.1,0.3,0.1c0.1,0,0.2,0,0.4,0c0.3,0,0.5,0,0.7-0.1
			c0.2-0.1,0.4-0.2,0.5-0.3c0.1-0.1,0.2-0.2,0.3-0.4c0.1-0.1,0.1-0.3,0.1-0.4V24.3z"/>
		<path fill="#565656" d="M124.9,21.8v0.8h0c0.4-0.6,0.9-0.9,1.7-0.9c0.3,0,0.6,0.1,0.9,0.2c0.3,0.1,0.4,0.4,0.5,0.7
			c0.2-0.3,0.4-0.5,0.7-0.6s0.6-0.2,0.9-0.2c0.3,0,0.5,0,0.7,0.1s0.4,0.1,0.5,0.3c0.1,0.1,0.3,0.3,0.4,0.5c0.1,0.2,0.1,0.4,0.1,0.7
			V27h-0.9v-3.4c0-0.2,0-0.3,0-0.5c0-0.1-0.1-0.3-0.2-0.4c-0.1-0.1-0.2-0.2-0.3-0.2c-0.1-0.1-0.3-0.1-0.5-0.1c-0.4,0-0.8,0.1-1,0.4
			c-0.2,0.2-0.4,0.6-0.4,1V27h-0.8v-3.4c0-0.2,0-0.3,0-0.5c0-0.1-0.1-0.3-0.2-0.4c-0.1-0.1-0.2-0.2-0.3-0.2
			c-0.1-0.1-0.3-0.1-0.5-0.1c-0.2,0-0.5,0-0.6,0.2c-0.2,0.1-0.3,0.2-0.4,0.4c-0.1,0.1-0.2,0.3-0.2,0.4c0,0.1-0.1,0.3-0.1,0.4V27
			h-0.8v-5.2H124.9z"/>
		<path fill="#565656" d="M136.3,26.7c-0.4,0.3-0.9,0.4-1.5,0.4c-0.4,0-0.8-0.1-1.1-0.2c-0.3-0.1-0.6-0.3-0.8-0.6
			c-0.2-0.2-0.4-0.5-0.5-0.9c-0.1-0.3-0.2-0.7-0.2-1.1c0-0.4,0.1-0.8,0.2-1.1c0.1-0.3,0.3-0.6,0.5-0.9c0.2-0.2,0.5-0.4,0.8-0.6
			c0.3-0.1,0.6-0.2,1-0.2c0.5,0,0.8,0.1,1.1,0.3c0.3,0.2,0.5,0.4,0.7,0.7c0.2,0.3,0.3,0.6,0.4,1c0.1,0.3,0.1,0.7,0.1,1h-3.9
			c0,0.2,0,0.4,0.1,0.6c0.1,0.2,0.2,0.4,0.3,0.5c0.1,0.2,0.3,0.3,0.5,0.4c0.2,0.1,0.5,0.1,0.7,0.1c0.4,0,0.7-0.1,0.9-0.2
			s0.4-0.4,0.5-0.8h0.8C136.9,25.9,136.7,26.4,136.3,26.7z M136.1,23.3c-0.1-0.2-0.2-0.3-0.3-0.5s-0.3-0.2-0.5-0.3
			c-0.2-0.1-0.4-0.1-0.6-0.1c-0.2,0-0.4,0-0.6,0.1c-0.2,0.1-0.3,0.2-0.5,0.3c-0.1,0.1-0.2,0.3-0.3,0.5c-0.1,0.2-0.1,0.4-0.1,0.6h3
			C136.2,23.7,136.2,23.5,136.1,23.3z"/>
	</g>
</g>
</svg>
